<svg width="70" height="18" viewBox="0 0 70 18" fill="none" xmlns="http://www.w3.org/2000/svg">
<g clip-path="url(#clip0_1178_2687)">
<path d="M12.8144 10.1352C15.0964 10.1352 17.3458 10.1352 19.6208 10.1352C19.6208 10.9224 19.6208 11.6712 19.6208 12.4392C16.5851 12.4392 13.5728 12.4392 10.5371 12.4392C10.5371 8.2848 10.5371 4.1544 10.5371 0C13.5634 0 16.5758 0 19.6161 0C19.6161 0.7248 19.6161 1.4472 19.6161 2.22C17.3551 2.22 15.0941 2.22 12.8144 2.22C12.8144 3.1992 12.8144 4.1304 12.8144 5.0928C14.9984 5.0928 17.1684 5.0928 19.3688 5.0928C19.3688 5.8344 19.3688 6.5448 19.3688 7.3032C17.1918 7.3032 15.0124 7.3032 12.8121 7.3032C12.8144 8.2608 12.8144 9.168 12.8144 10.1352Z" fill="#8CC327"/>
<path d="M31.1172 14.0564C31.8335 14.0564 32.5102 14.0564 33.1845 14.0564C33.5905 15.7244 35.3499 16.4636 36.7965 15.5876C37.3799 15.2348 37.6645 14.6948 37.6505 14.006C37.6365 13.3004 37.2935 12.782 36.6659 12.5324C36.2739 12.3764 35.8399 12.3284 35.4199 12.2564C34.9719 12.182 34.5052 12.1868 34.0689 12.0716C32.4169 11.6372 31.3272 10.3556 31.1849 8.6084C31.1289 7.9196 31.1429 7.19 31.2969 6.5204C31.7005 4.754 33.1822 3.5396 34.9742 3.3788C35.9752 3.29 36.5609 3.3932 37.4639 3.8324C37.7322 3.4868 38.0052 3.134 38.3062 2.75C38.8312 3.1556 39.3399 3.5468 39.8719 3.9572C39.5475 4.3844 39.2395 4.7948 38.9315 5.2004C40.3525 6.9044 40.0749 10.0292 38.0915 11.102C38.1009 11.1236 38.1055 11.1572 38.1219 11.1668C40.5532 12.3188 40.1939 16.13 38.0005 17.3156C36.2809 18.2444 34.5332 18.2372 32.8509 17.2388C31.6982 16.5572 31.1592 15.4628 31.1172 14.0564ZM37.6995 7.8356C37.6925 6.638 37.0765 5.7188 36.0942 5.4356C34.5169 4.9796 33.1589 6.1796 33.2335 7.9628C33.2942 9.3836 34.2182 10.3076 35.5435 10.2716C36.8105 10.2356 37.7089 9.2204 37.6995 7.8356Z" fill="#8CC327"/>
<path d="M51.3847 14.0497C52.1127 14.0497 52.78 14.0497 53.445 14.0497C53.7064 15.8689 55.6057 16.2145 56.8027 15.7201C57.5307 15.4201 57.9344 14.7961 57.9227 14.0233C57.911 13.2841 57.5214 12.7105 56.7677 12.4585C56.3804 12.3289 55.9557 12.2809 55.545 12.2593C53.9187 12.1777 52.5724 11.5945 51.8374 10.0105C50.946 8.08813 51.205 5.06653 53.6854 3.84253C54.9967 3.19453 56.3454 3.15133 57.7267 3.82333C57.995 3.48733 58.2774 3.13213 58.5784 2.75293C59.0987 3.15613 59.598 3.54253 60.137 3.95773C59.8127 4.38493 59.5047 4.79293 59.199 5.19613C60.6714 6.99373 60.2747 10.0921 58.345 11.1001C58.366 11.1289 58.38 11.1649 58.408 11.1817C59.9784 12.1921 60.4824 13.8049 59.7684 15.5689C59.3274 16.6609 58.5177 17.3449 57.4397 17.6905C55.916 18.1777 54.4367 18.0745 53.0624 17.2009C51.9494 16.4977 51.4384 15.4225 51.3847 14.0497ZM55.748 10.2697C57.0384 10.2673 57.981 9.25453 57.9834 7.86493C57.9857 6.38893 57.0454 5.34013 55.7247 5.34733C54.4297 5.35453 53.487 6.39373 53.494 7.80493C53.5034 9.27853 54.4134 10.2745 55.748 10.2697Z" fill="#8CC327"/>
<path d="M47.9093 4.81695C47.9443 4.38015 47.97 4.03935 48.0003 3.66975C48.6653 3.66975 49.314 3.66975 49.9953 3.66975C49.9953 6.58095 49.9953 9.49695 49.9953 12.437C49.3536 12.437 48.7143 12.437 48.0376 12.437C47.998 12.0602 47.9606 11.6858 47.9163 11.2538C47.116 12.3602 46.0496 12.7682 44.799 12.7154C43.5856 12.6626 42.5053 12.2522 41.7073 11.2634C40.7926 10.1258 40.613 8.77935 40.739 7.36335C40.991 4.54335 43.6743 2.73855 46.3063 3.61215C46.9386 3.82095 47.4636 4.18335 47.9093 4.81695ZM42.8343 8.04255C42.8506 9.65055 43.882 10.7378 45.38 10.7282C46.8406 10.7186 47.886 9.59055 47.8766 8.02815C47.8673 6.45855 46.815 5.35455 45.345 5.37135C43.8493 5.38815 42.818 6.48495 42.8343 8.04255Z" fill="#8CC327"/>
<path d="M63.2878 8.81793C63.4091 9.80433 64.1301 10.4835 65.1661 10.6515C66.2278 10.8219 67.1145 10.6059 68.1481 9.91713C68.5728 10.3659 68.9998 10.8171 69.5085 11.3523C69.0068 11.6523 68.5401 12.0051 68.0221 12.2283C66.7295 12.7899 65.3855 12.8427 64.0415 12.4299C62.2355 11.8731 61.1458 10.3275 61.0688 8.26113C60.9521 5.12433 63.1968 3.01953 66.2535 3.40353C68.6195 3.70113 69.9495 5.21793 69.9961 7.67313C70.0031 8.04273 69.9961 8.40993 69.9961 8.82033C67.7351 8.81793 65.5278 8.81793 63.2878 8.81793ZM67.9171 7.00833C67.8378 6.34833 67.5461 5.86833 67.0001 5.60673C66.0528 5.15073 65.1008 5.17473 64.1955 5.73633C63.7405 6.01953 63.4535 6.44913 63.3111 7.00833C64.8628 7.00833 66.3631 7.00833 67.9171 7.00833Z" fill="#8CC327"/>
<path d="M0.00408333 3.65723C0.720417 3.65723 1.39942 3.65723 2.12975 3.65723C2.12975 3.82283 2.12975 3.96923 2.12975 4.11563C2.12975 5.45243 2.12742 6.79163 2.13208 8.12843C2.13208 8.37563 2.13675 8.62763 2.18108 8.87003C2.37708 9.95963 3.13075 10.6148 4.16442 10.6124C5.26575 10.61 6.17108 9.82763 6.33908 8.68043C6.40908 8.19323 6.39742 7.69163 6.40208 7.19483C6.40908 6.02603 6.40442 4.85723 6.40442 3.65963C7.12075 3.65963 7.79508 3.65963 8.49275 3.65963C8.49275 6.59483 8.49275 9.51083 8.49275 12.4484C7.86275 12.4484 7.25142 12.4484 6.61675 12.4484C6.56775 12.074 6.52108 11.714 6.46742 11.3012C6.34608 11.4044 6.25508 11.4764 6.17108 11.5556C5.25642 12.4076 4.18075 12.7388 2.96975 12.5444C1.53242 12.314 0.662083 11.39 0.244417 10.0028C0.11375 9.57323 0.0274167 9.11243 0.0204167 8.66363C-0.01225 7.01243 0.00408333 5.35883 0.00408333 3.65723Z" fill="#8CC327"/>
<path d="M29.7196 12.4387C29.001 12.4387 28.3243 12.4387 27.601 12.4387C27.601 12.2011 27.601 11.9827 27.601 11.7667C27.601 10.5523 27.601 9.34033 27.601 8.12593C27.601 7.94593 27.601 7.76593 27.5823 7.58833C27.44 6.19393 26.6583 5.43793 25.4216 5.49313C24.262 5.54353 23.3566 6.52033 23.3356 7.79473C23.3123 9.11713 23.331 10.4419 23.331 11.7667C23.331 11.9731 23.331 12.1795 23.331 12.4243C22.6403 12.4243 21.9636 12.4243 21.252 12.4243C21.252 9.52033 21.252 6.59473 21.252 3.64753C21.8563 3.64753 22.4536 3.64753 23.0976 3.64753C23.1513 4.00753 23.2073 4.37713 23.2703 4.79233C23.4103 4.66753 23.5106 4.57873 23.611 4.49233C24.71 3.52513 25.963 3.23233 27.3256 3.72673C28.7023 4.22593 29.4233 5.34193 29.6123 6.76993C29.7406 7.74673 29.701 8.74993 29.7173 9.74113C29.7313 10.6315 29.7196 11.5243 29.7196 12.4387Z" fill="#8CC327"/>
</g>
<defs>
<clipPath id="clip0_1178_2687">
<rect width="70" height="18" fill="white"/>
</clipPath>
</defs>
</svg>
